# xmcd CD database file
#
# Track frame offsets:
#	150
#	17030
#	30014
#	43670
#	59124
#	81657
#	106611
#	121513
#	131767
#	145034
#	178080
#	188191
#	213578
#
# Disc length: 2959 seconds
#
# Revision: 0
# Processed by: cddbd v1.5.2PL0 Copyright (c) Steve Scherf et al.
# Submitted via: CDex 1.70beta2
#
DISCID=b10b8d0d
DTITLE=Twitty, Conway - USA - X-Mas - Twitty Bird Christmas
DYEAR=1900
DGENRE=Country
TTITLE0=Santa Claus Is Coming To Town
TTITLE1=Nine Little Reindeer
TTITLE2=Jingle Bells
TTITLE3=White Christmas
TTITLE4=Christmas Is For The Birds
TTITLE5=Johnny Snowman, Frosty The Snowman
TTITLE6=Winter Wonderland
TTITLE7=Happy The Christmas Clown
TTITLE8=Silver Bells
TTITLE9=Ding-a-ling The Christmas Bell,  Kids
TTITLE10=Here Comes Santa Claus
TTITLE11=The Night Before Christmas, Medley
TTITLE12=Narration, Silent Night
EXTD=
EXTT0=
EXTT1=
EXTT2=
EXTT3=
EXTT4=
EXTT5=
EXTT6=
EXTT7=
EXTT8=
EXTT9=
EXTT10=
EXTT11=
EXTT12=
PLAYORDER=
